<svg width="246" height="46" viewBox="0 0 246 46" fill="none" xmlns="http://www.w3.org/2000/svg">
<path d="M22.5074 41.2635C32.866 41.2635 41.2635 32.866 41.2635 22.5074C41.2635 12.1486 32.866 3.75123 22.5074 3.75123C12.1486 3.75123 3.75122 12.1486 3.75122 22.5074C3.75122 25.5078 4.45574 28.3436 5.70835 30.8586C6.04123 31.5269 6.15203 32.2908 5.95905 33.012L4.84191 37.1873C4.35695 38.9997 6.01511 40.6577 7.82759 40.1729L12.0028 39.0558C12.724 38.8628 13.4879 38.9736 14.1563 39.3063C16.6712 40.5591 19.507 41.2635 22.5074 41.2635Z" fill="#06D001"/>
<path fill-rule="evenodd" clip-rule="evenodd" d="M22.5081 12.708C21.6536 12.708 20.9608 13.4008 20.9608 14.2554V30.7608C20.9608 31.6154 21.6536 32.3082 22.5081 32.3082C23.3627 32.3082 24.0555 31.6154 24.0555 30.7608V14.2554C24.0555 13.4008 23.3627 12.708 22.5081 12.708Z" fill="white"/>
<path fill-rule="evenodd" clip-rule="evenodd" d="M14.2554 16.8344C13.4008 16.8344 12.708 17.5272 12.708 18.3818V26.6345C12.708 27.489 13.4008 28.1819 14.2554 28.1819C15.11 28.1819 15.8028 27.489 15.8028 26.6345V18.3818C15.8028 17.5272 15.11 16.8344 14.2554 16.8344Z" fill="white"/>
<path d="M29.2134 18.3818C29.2134 17.5272 29.9063 16.8344 30.7608 16.8344C31.6154 16.8344 32.3082 17.5272 32.3082 18.3818V26.6345C32.3082 27.489 31.6154 28.1819 30.7608 28.1819C29.9063 28.1819 29.2134 27.489 29.2134 26.6345V18.3818Z" fill="white"/>
<path d="M62.6373 31.5769L57.8296 16.4273H61.6116L65.0732 28.094H63.4279L66.8467 16.4273H69.9022L73.321 28.094H71.6971L75.1587 16.4273H78.9193L74.0903 31.5769H71.0134L67.5945 19.9316H69.133L65.7356 31.5769H62.6373Z" fill="#1E1E1E"/>
<path d="M87.033 31.5769V25.6795C87.033 25.1952 86.8905 24.8177 86.6056 24.547C86.3207 24.2621 85.9575 24.1197 85.5159 24.1197C85.2167 24.1197 84.9461 24.1838 84.7039 24.312C84.476 24.4402 84.2979 24.6182 84.1697 24.8462C84.0415 25.0741 83.9774 25.3519 83.9774 25.6795L82.5244 24.9957C82.5244 24.1553 82.6954 23.4359 83.0373 22.8376C83.3934 22.2251 83.8777 21.755 84.4902 21.4274C85.1028 21.0855 85.815 20.9145 86.627 20.9145C87.4675 20.9145 88.1939 21.0855 88.8065 21.4274C89.4333 21.755 89.9105 22.2108 90.2381 22.7949C90.58 23.3789 90.7509 24.0556 90.7509 24.8248V31.5769H87.033ZM80.2595 31.5769V16H83.9774V31.5769H80.2595Z" fill="#1E1E1E"/>
<path d="M97.0759 31.7906C96.1072 31.7906 95.2454 31.5556 94.4904 31.0855C93.7354 30.6154 93.1443 29.9744 92.7169 29.1624C92.2896 28.3362 92.0759 27.4031 92.0759 26.3632C92.0759 25.3091 92.2896 24.3689 92.7169 23.5427C93.1443 22.7165 93.7354 22.0755 94.4904 21.6197C95.2454 21.1496 96.1072 20.9145 97.0759 20.9145C97.7312 20.9145 98.3294 21.0356 98.8708 21.2778C99.4121 21.5057 99.8537 21.8333 100.196 22.2607C100.552 22.688 100.765 23.1724 100.837 23.7137V28.9701C100.765 29.5256 100.552 30.0171 100.196 30.4444C99.8537 30.8575 99.4121 31.1852 98.8708 31.4273C98.3294 31.6695 97.7312 31.7906 97.0759 31.7906ZM97.8665 28.4786C98.479 28.4786 98.9705 28.2792 99.3408 27.8803C99.7255 27.4815 99.9178 26.9687 99.9178 26.3419C99.9178 25.9288 99.8323 25.5655 99.6614 25.2521C99.4904 24.9387 99.2482 24.6895 98.9349 24.5043C98.6357 24.3191 98.2867 24.2265 97.8878 24.2265C97.489 24.2265 97.1329 24.3191 96.8195 24.5043C96.5203 24.6895 96.2782 24.9459 96.093 25.2735C95.922 25.5869 95.8366 25.943 95.8366 26.3419C95.8366 26.755 95.922 27.1254 96.093 27.453C96.2639 27.7664 96.5061 28.0157 96.8195 28.2009C97.1329 28.386 97.4819 28.4786 97.8665 28.4786ZM99.7682 31.5769V28.7778L100.302 26.2137L99.7682 23.6923V21.1282H103.422V31.5769H99.7682Z" fill="#1E1E1E"/>
<path d="M107.023 31.5769V16.812H110.741V31.5769H107.023ZM104.716 24.2265V21.1282H113.049V24.2265H104.716Z" fill="#1E1E1E"/>
<path d="M118.121 31.8761C117.48 31.8761 116.846 31.7906 116.22 31.6197C115.607 31.4487 115.03 31.2208 114.489 30.9359C113.962 30.6368 113.513 30.2949 113.143 29.9103L115.173 27.8376C115.515 28.1937 115.921 28.4715 116.391 28.6709C116.875 28.8704 117.388 28.9701 117.929 28.9701C118.242 28.9701 118.478 28.9274 118.634 28.8419C118.805 28.7564 118.891 28.6353 118.891 28.4786C118.891 28.2507 118.77 28.0798 118.527 27.9658C118.299 27.8376 117.993 27.7308 117.609 27.6453C117.238 27.5456 116.846 27.4316 116.433 27.3034C116.02 27.161 115.621 26.9758 115.237 26.7479C114.852 26.5199 114.539 26.1994 114.297 25.7863C114.069 25.3732 113.955 24.8462 113.955 24.2051C113.955 23.5356 114.133 22.9516 114.489 22.453C114.859 21.9402 115.372 21.5413 116.027 21.2564C116.683 20.9573 117.452 20.8077 118.335 20.8077C119.232 20.8077 120.087 20.9644 120.899 21.2778C121.711 21.5769 122.366 22.0328 122.865 22.6453L120.814 24.7179C120.472 24.3333 120.094 24.0698 119.681 23.9274C119.268 23.7707 118.891 23.6923 118.549 23.6923C118.221 23.6923 117.986 23.7422 117.844 23.8419C117.701 23.9274 117.63 24.0484 117.63 24.2051C117.63 24.3903 117.744 24.5399 117.972 24.6538C118.214 24.7678 118.52 24.8746 118.891 24.9744C119.275 25.0598 119.667 25.1738 120.066 25.3162C120.479 25.4587 120.871 25.6581 121.241 25.9145C121.626 26.1567 121.932 26.4843 122.16 26.8974C122.402 27.3105 122.523 27.8447 122.523 28.5C122.523 29.5399 122.124 30.3661 121.327 30.9786C120.529 31.5769 119.46 31.8761 118.121 31.8761Z" fill="#1E1E1E"/>
<path d="M123.35 31.5769L129.226 16.4273H132.923L138.735 31.5769H134.739L130.359 18.8419H131.748L127.26 31.5769H123.35ZM126.918 28.9273V25.8932H135.273V28.9273H126.918Z" fill="#1E1E1E"/>
<path d="M146.281 31.7906C145.612 31.7906 144.992 31.6695 144.422 31.4273C143.853 31.1852 143.383 30.8575 143.012 30.4444C142.642 30.0171 142.414 29.5256 142.328 28.9701V23.8846C142.414 23.3291 142.642 22.8305 143.012 22.3889C143.397 21.933 143.867 21.5769 144.422 21.3205C144.992 21.0499 145.612 20.9145 146.281 20.9145C147.293 20.9145 148.183 21.1496 148.952 21.6197C149.722 22.0755 150.32 22.7165 150.747 23.5427C151.189 24.3689 151.41 25.3091 151.41 26.3632C151.41 27.4031 151.189 28.3362 150.747 29.1624C150.32 29.9744 149.722 30.6154 148.952 31.0855C148.183 31.5556 147.293 31.7906 146.281 31.7906ZM145.576 28.4786C145.989 28.4786 146.353 28.386 146.666 28.2009C146.979 28.0157 147.222 27.7664 147.393 27.453C147.563 27.1254 147.649 26.755 147.649 26.3419C147.649 25.9288 147.563 25.5655 147.393 25.2521C147.222 24.9387 146.979 24.6895 146.666 24.5043C146.353 24.3191 145.997 24.2265 145.598 24.2265C145.213 24.2265 144.864 24.3191 144.551 24.5043C144.237 24.6752 143.995 24.9245 143.824 25.2521C143.653 25.5655 143.568 25.9288 143.568 26.3419C143.568 26.755 143.653 27.1254 143.824 27.453C143.995 27.7664 144.23 28.0157 144.529 28.2009C144.843 28.386 145.192 28.4786 145.576 28.4786ZM140.063 36V21.1282H143.781V23.7564L143.162 26.2778L143.696 28.8205V36H140.063Z" fill="#1E1E1E"/>
<path d="M159.156 31.7906C158.487 31.7906 157.867 31.6695 157.297 31.4273C156.727 31.1852 156.257 30.8575 155.887 30.4444C155.517 30.0171 155.289 29.5256 155.203 28.9701V23.8846C155.289 23.3291 155.517 22.8305 155.887 22.3889C156.272 21.933 156.742 21.5769 157.297 21.3205C157.867 21.0499 158.487 20.9145 159.156 20.9145C160.168 20.9145 161.058 21.1496 161.827 21.6197C162.596 22.0755 163.195 22.7165 163.622 23.5427C164.064 24.3689 164.284 25.3091 164.284 26.3632C164.284 27.4031 164.064 28.3362 163.622 29.1624C163.195 29.9744 162.596 30.6154 161.827 31.0855C161.058 31.5556 160.168 31.7906 159.156 31.7906ZM158.451 28.4786C158.864 28.4786 159.227 28.386 159.541 28.2009C159.854 28.0157 160.096 27.7664 160.267 27.453C160.438 27.1254 160.524 26.755 160.524 26.3419C160.524 25.9288 160.438 25.5655 160.267 25.2521C160.096 24.9387 159.854 24.6895 159.541 24.5043C159.227 24.3191 158.871 24.2265 158.472 24.2265C158.088 24.2265 157.739 24.3191 157.425 24.5043C157.112 24.6752 156.87 24.9245 156.699 25.2521C156.528 25.5655 156.443 25.9288 156.443 26.3419C156.443 26.755 156.528 27.1254 156.699 27.453C156.87 27.7664 157.105 28.0157 157.404 28.2009C157.717 28.386 158.066 28.4786 158.451 28.4786ZM152.938 36V21.1282H156.656V23.7564L156.037 26.2778L156.571 28.8205V36H152.938Z" fill="#1E1E1E"/>
<path d="M173.047 25.4444V22.7094H175.932C176.559 22.7094 177.036 22.5598 177.364 22.2607C177.706 21.9473 177.876 21.5271 177.876 21C177.876 20.4872 177.706 20.0741 177.364 19.7607C177.036 19.433 176.559 19.2692 175.932 19.2692H173.047V16.4273H176.466C177.492 16.4273 178.389 16.6197 179.159 17.0043C179.942 17.3889 180.555 17.916 180.996 18.5855C181.438 19.255 181.659 20.0385 181.659 20.9359C181.659 21.8333 181.431 22.6239 180.975 23.3077C180.533 23.9772 179.914 24.5043 179.116 24.8889C178.318 25.2593 177.385 25.4444 176.317 25.4444H173.047ZM170.013 31.5769V16.4273H173.838V31.5769H170.013ZM178.218 31.5769L173.817 25.0812L177.257 24.2479L182.641 31.5769H178.218Z" fill="#1E1E1E"/>
<path d="M188.661 31.812C187.492 31.812 186.46 31.584 185.562 31.1282C184.665 30.6581 183.96 30.01 183.447 29.1838C182.934 28.3576 182.678 27.4103 182.678 26.3419C182.678 25.2877 182.927 24.3547 183.426 23.5427C183.924 22.7165 184.601 22.0684 185.455 21.5983C186.324 21.114 187.3 20.8718 188.383 20.8718C189.437 20.8718 190.37 21.0997 191.182 21.5556C192.008 21.9972 192.649 22.6168 193.105 23.4145C193.575 24.198 193.81 25.0954 193.81 26.1068C193.81 26.3205 193.796 26.5413 193.767 26.7692C193.753 26.9829 193.71 27.2322 193.639 27.5171L184.43 27.5598V25.1667L192.165 25.1026L190.498 26.1496C190.484 25.5655 190.398 25.0883 190.242 24.7179C190.085 24.3333 189.857 24.0413 189.558 23.8419C189.259 23.6425 188.881 23.5427 188.426 23.5427C187.955 23.5427 187.549 23.6567 187.208 23.8846C186.866 24.1125 186.602 24.433 186.417 24.8462C186.232 25.2593 186.139 25.7578 186.139 26.3419C186.139 26.9402 186.239 27.453 186.438 27.8803C186.638 28.2934 186.923 28.6068 187.293 28.8205C187.663 29.0342 188.119 29.141 188.661 29.141C189.173 29.141 189.622 29.0556 190.007 28.8846C190.406 28.7137 190.762 28.4501 191.075 28.094L193.02 30.0385C192.507 30.6225 191.88 31.0641 191.139 31.3632C190.413 31.6624 189.586 31.812 188.661 31.812Z" fill="#1E1E1E"/>
<path d="M195.214 31.5769V21.1282H198.932V31.5769H195.214ZM201.774 31.5769V25.5299C201.774 25.0883 201.639 24.7464 201.368 24.5043C201.097 24.2479 200.763 24.1197 200.364 24.1197C200.079 24.1197 199.83 24.1766 199.616 24.2906C199.402 24.4046 199.231 24.5684 199.103 24.7821C198.989 24.9815 198.932 25.2308 198.932 25.5299L197.479 24.953C197.479 24.1125 197.664 23.3932 198.035 22.7949C198.405 22.1966 198.904 21.7336 199.53 21.406C200.157 21.0783 200.87 20.9145 201.667 20.9145C202.379 20.9145 203.02 21.0855 203.59 21.4274C204.174 21.755 204.637 22.2179 204.979 22.8162C205.321 23.4145 205.492 24.1197 205.492 24.9316V31.5769H201.774ZM208.334 31.5769V25.5299C208.334 25.0883 208.199 24.7464 207.928 24.5043C207.657 24.2479 207.322 24.1197 206.924 24.1197C206.653 24.1197 206.404 24.1766 206.176 24.2906C205.962 24.4046 205.791 24.5684 205.663 24.7821C205.549 24.9815 205.492 25.2308 205.492 25.5299L203.313 25.4231C203.341 24.4829 203.548 23.6781 203.932 23.0085C204.317 22.339 204.844 21.8262 205.513 21.4701C206.197 21.0997 206.966 20.9145 207.821 20.9145C208.633 20.9145 209.36 21.0855 210.001 21.4274C210.642 21.7692 211.14 22.2678 211.496 22.9231C211.867 23.5641 212.052 24.3333 212.052 25.2308V31.5769H208.334Z" fill="#1E1E1E"/>
<path d="M219.144 31.812C218.018 31.812 217.014 31.5769 216.131 31.1068C215.262 30.6225 214.571 29.9672 214.058 29.141C213.546 28.3006 213.289 27.3604 213.289 26.3205C213.289 25.2806 213.538 24.3547 214.037 23.5427C214.55 22.7165 215.248 22.0684 216.131 21.5983C217.014 21.114 218.011 20.8718 219.122 20.8718C220.234 20.8718 221.224 21.114 222.093 21.5983C222.976 22.0684 223.674 22.7165 224.187 23.5427C224.699 24.3547 224.956 25.2806 224.956 26.3205C224.956 27.3604 224.699 28.3006 224.187 29.141C223.688 29.9672 222.997 30.6225 222.114 31.1068C221.245 31.5769 220.255 31.812 219.144 31.812ZM219.122 28.5C219.536 28.5 219.892 28.4145 220.191 28.2436C220.504 28.0584 220.746 27.802 220.917 27.4744C221.088 27.1467 221.174 26.7692 221.174 26.3419C221.174 25.9145 221.081 25.5442 220.896 25.2308C220.725 24.9031 220.49 24.6538 220.191 24.4829C219.892 24.2977 219.536 24.2051 219.122 24.2051C218.724 24.2051 218.367 24.2977 218.054 24.4829C217.741 24.6681 217.499 24.9245 217.328 25.2521C217.157 25.5655 217.071 25.9359 217.071 26.3632C217.071 26.7764 217.157 27.1467 217.328 27.4744C217.499 27.802 217.741 28.0584 218.054 28.2436C218.367 28.4145 218.724 28.5 219.122 28.5Z" fill="#1E1E1E"/>
<path d="M227.696 31.5769V16.812H231.413V31.5769H227.696ZM225.388 24.2265V21.1282H233.721V24.2265H225.388Z" fill="#1E1E1E"/>
<path d="M240.139 31.812C238.971 31.812 237.938 31.584 237.04 31.1282C236.143 30.6581 235.438 30.01 234.925 29.1838C234.412 28.3576 234.156 27.4103 234.156 26.3419C234.156 25.2877 234.405 24.3547 234.904 23.5427C235.402 22.7165 236.079 22.0684 236.934 21.5983C237.803 21.114 238.778 20.8718 239.861 20.8718C240.915 20.8718 241.848 21.0997 242.66 21.5556C243.486 21.9972 244.127 22.6168 244.583 23.4145C245.053 24.198 245.288 25.0954 245.288 26.1068C245.288 26.3205 245.274 26.5413 245.246 26.7692C245.231 26.9829 245.189 27.2322 245.117 27.5171L235.908 27.5598V25.1667L243.643 25.1026L241.976 26.1496C241.962 25.5655 241.877 25.0883 241.72 24.7179C241.563 24.3333 241.335 24.0413 241.036 23.8419C240.737 23.6425 240.36 23.5427 239.904 23.5427C239.434 23.5427 239.028 23.6567 238.686 23.8846C238.344 24.1125 238.08 24.433 237.895 24.8462C237.71 25.2593 237.617 25.7578 237.617 26.3419C237.617 26.9402 237.717 27.453 237.917 27.8803C238.116 28.2934 238.401 28.6068 238.771 28.8205C239.142 29.0342 239.597 29.141 240.139 29.141C240.652 29.141 241.1 29.0556 241.485 28.8846C241.884 28.7137 242.24 28.4501 242.553 28.094L244.498 30.0385C243.985 30.6225 243.358 31.0641 242.617 31.3632C241.891 31.6624 241.065 31.812 240.139 31.812Z" fill="#1E1E1E"/>
</svg>
