<svg width="240" height="240" viewBox="0 0 240 240" fill="none" xmlns="http://www.w3.org/2000/svg">
<path d="M30.6452 199.559L25.8155 198.267L30.6452 199.559L36.6013 177.298C36.6013 177.298 36.6013 177.298 36.6013 177.298C37.9863 172.122 37.1534 166.799 34.9101 162.296C28.5689 149.564 25 135.206 25 120C25 67.5329 67.5329 25 120 25C172.467 25 215 67.5329 215 120C215 172.467 172.467 215 120 215C104.794 215 90.436 211.431 77.7046 205.089L77.7037 205.089C73.2007 202.847 67.8781 202.014 62.7014 203.399L40.4414 209.355C34.4939 210.946 29.0542 205.505 30.6452 199.559Z" fill="#06D001" stroke="white" stroke-width="10"/>
<path fill-rule="evenodd" clip-rule="evenodd" d="M120.004 67.7539C115.448 67.7539 111.754 71.4476 111.754 76.0039V164.004C111.754 168.56 115.448 172.254 120.004 172.254C124.56 172.254 128.254 168.56 128.254 164.004V76.0039C128.254 71.4476 124.56 67.7539 120.004 67.7539Z" fill="white"/>
<path fill-rule="evenodd" clip-rule="evenodd" d="M76.0039 89.7539C71.4476 89.7539 67.7539 93.4476 67.7539 98.0039V142.004C67.7539 146.56 71.4476 150.254 76.0039 150.254C80.5603 150.254 84.2539 146.56 84.2539 142.004V98.0039C84.2539 93.4476 80.5603 89.7539 76.0039 89.7539Z" fill="white"/>
<path d="M155.754 98.0039C155.754 93.4476 159.448 89.7539 164.004 89.7539C168.56 89.7539 172.254 93.4476 172.254 98.0039V142.004C172.254 146.56 168.56 150.254 164.004 150.254C159.448 150.254 155.754 146.56 155.754 142.004V98.0039Z" fill="white"/>
</svg>
