<svg width="545" height="153" viewBox="0 0 545 153" fill="none" xmlns="http://www.w3.org/2000/svg">
<rect width="545" height="153" rx="20" fill="#FFC43A"/>
<path d="M78.7099 88.5H71.1758V65.2273H78.9486C81.2289 65.2273 83.1872 65.6932 84.8236 66.625C86.4599 67.5492 87.7137 68.8788 88.5849 70.6136C89.4637 72.3409 89.9031 74.4129 89.9031 76.8295C89.9031 79.2538 89.4599 81.3371 88.5736 83.0795C87.6948 84.822 86.422 86.1629 84.7554 87.1023C83.0887 88.0341 81.0736 88.5 78.7099 88.5ZM74.6872 85.4318H78.5167C80.2895 85.4318 81.763 85.0985 82.9372 84.4318C84.1114 83.7576 84.9902 82.7841 85.5736 81.5114C86.1569 80.2311 86.4486 78.6705 86.4486 76.8295C86.4486 75.0038 86.1569 73.4545 85.5736 72.1818C84.9978 70.9091 84.138 69.9432 82.994 69.2841C81.8501 68.625 80.4296 68.2955 78.7327 68.2955H74.6872V85.4318ZM100.709 88.8523C99.0728 88.8523 97.6447 88.4773 96.425 87.7273C95.2053 86.9773 94.2584 85.928 93.5841 84.5795C92.9099 83.2311 92.5728 81.6553 92.5728 79.8523C92.5728 78.0417 92.9099 76.4583 93.5841 75.1023C94.2584 73.7462 95.2053 72.6932 96.425 71.9432C97.6447 71.1932 99.0728 70.8182 100.709 70.8182C102.345 70.8182 103.774 71.1932 104.993 71.9432C106.213 72.6932 107.16 73.7462 107.834 75.1023C108.508 76.4583 108.845 78.0417 108.845 79.8523C108.845 81.6553 108.508 83.2311 107.834 84.5795C107.16 85.928 106.213 86.9773 104.993 87.7273C103.774 88.4773 102.345 88.8523 100.709 88.8523ZM100.72 86C101.781 86 102.66 85.7197 103.357 85.1591C104.054 84.5985 104.569 83.8523 104.902 82.9205C105.243 81.9886 105.414 80.9621 105.414 79.8409C105.414 78.7273 105.243 77.7045 104.902 76.7727C104.569 75.8333 104.054 75.0795 103.357 74.5114C102.66 73.9432 101.781 73.6591 100.72 73.6591C99.6523 73.6591 98.766 73.9432 98.0614 74.5114C97.3644 75.0795 96.8455 75.8333 96.5046 76.7727C96.1713 77.7045 96.0046 78.7273 96.0046 79.8409C96.0046 80.9621 96.1713 81.9886 96.5046 82.9205C96.8455 83.8523 97.3644 84.5985 98.0614 85.1591C98.766 85.7197 99.6523 86 100.72 86ZM115.396 78.1364V88.5H111.998V71.0455H115.259V73.8864H115.475C115.877 72.9621 116.506 72.2197 117.362 71.6591C118.225 71.0985 119.313 70.8182 120.623 70.8182C121.813 70.8182 122.854 71.0682 123.748 71.5682C124.642 72.0606 125.335 72.7955 125.828 73.7727C126.32 74.75 126.566 75.9583 126.566 77.3977V88.5H123.169V77.8068C123.169 76.5417 122.839 75.553 122.18 74.8409C121.521 74.1212 120.616 73.7614 119.464 73.7614C118.676 73.7614 117.975 73.9318 117.362 74.2727C116.756 74.6136 116.275 75.1136 115.919 75.7727C115.57 76.4242 115.396 77.2121 115.396 78.1364ZM135.563 88.8864C134.457 88.8864 133.457 88.6818 132.563 88.2727C131.669 87.8561 130.96 87.2538 130.438 86.4659C129.923 85.678 129.665 84.7121 129.665 83.5682C129.665 82.5833 129.854 81.7727 130.233 81.1364C130.612 80.5 131.123 79.9962 131.767 79.625C132.411 79.2538 133.131 78.9735 133.926 78.7841C134.722 78.5947 135.532 78.4508 136.358 78.3523C137.404 78.2311 138.252 78.1326 138.904 78.0568C139.555 77.9735 140.029 77.8409 140.324 77.6591C140.619 77.4773 140.767 77.1818 140.767 76.7727V76.6932C140.767 75.7008 140.487 74.9318 139.926 74.3864C139.373 73.8409 138.548 73.5682 137.449 73.5682C136.305 73.5682 135.404 73.822 134.744 74.3295C134.093 74.8295 133.642 75.3864 133.392 76L130.199 75.2727C130.578 74.2121 131.131 73.3561 131.858 72.7045C132.593 72.0455 133.438 71.5682 134.392 71.2727C135.347 70.9697 136.351 70.8182 137.404 70.8182C138.101 70.8182 138.839 70.9015 139.619 71.0682C140.407 71.2273 141.142 71.5227 141.824 71.9545C142.513 72.3864 143.078 73.0038 143.517 73.8068C143.957 74.6023 144.176 75.6364 144.176 76.9091V88.5H140.858V86.1136H140.722C140.502 86.553 140.173 86.9848 139.733 87.4091C139.294 87.8333 138.729 88.1856 138.04 88.4659C137.351 88.7462 136.525 88.8864 135.563 88.8864ZM136.301 86.1591C137.241 86.1591 138.044 85.9735 138.71 85.6023C139.385 85.2311 139.896 84.7462 140.244 84.1477C140.601 83.5417 140.779 82.8939 140.779 82.2045V79.9545C140.657 80.0758 140.423 80.1894 140.074 80.2955C139.733 80.3939 139.343 80.4811 138.904 80.5568C138.464 80.625 138.036 80.6894 137.619 80.75C137.203 80.803 136.854 80.8485 136.574 80.8864C135.915 80.9697 135.313 81.1098 134.767 81.3068C134.229 81.5038 133.798 81.7879 133.472 82.1591C133.154 82.5227 132.994 83.0076 132.994 83.6136C132.994 84.4545 133.305 85.0909 133.926 85.5227C134.548 85.947 135.339 86.1591 136.301 86.1591ZM156.21 71.0455V73.7727H146.675V71.0455H156.21ZM149.232 66.8636H152.63V83.375C152.63 84.0341 152.729 84.5303 152.925 84.8636C153.122 85.1894 153.376 85.4129 153.687 85.5341C154.005 85.6477 154.35 85.7045 154.721 85.7045C154.994 85.7045 155.232 85.6856 155.437 85.6477C155.641 85.6098 155.8 85.5795 155.914 85.5568L156.528 88.3636C156.331 88.4394 156.05 88.5152 155.687 88.5909C155.323 88.6742 154.869 88.7197 154.323 88.7273C153.429 88.7424 152.596 88.5833 151.823 88.25C151.05 87.9167 150.425 87.4015 149.948 86.7045C149.471 86.0076 149.232 85.1326 149.232 84.0795V66.8636ZM166.663 88.8523C164.944 88.8523 163.463 88.4848 162.22 87.75C160.985 87.0076 160.031 85.9659 159.357 84.625C158.69 83.2765 158.357 81.697 158.357 79.8864C158.357 78.0985 158.69 76.5227 159.357 75.1591C160.031 73.7955 160.97 72.7311 162.175 71.9659C163.387 71.2008 164.803 70.8182 166.425 70.8182C167.41 70.8182 168.364 70.9811 169.288 71.3068C170.213 71.6326 171.042 72.1439 171.777 72.8409C172.512 73.5379 173.091 74.4432 173.516 75.5568C173.94 76.6629 174.152 78.0076 174.152 79.5909V80.7955H160.277V78.25H170.822C170.822 77.3561 170.641 76.5644 170.277 75.875C169.913 75.178 169.402 74.6288 168.743 74.2273C168.091 73.8258 167.326 73.625 166.447 73.625C165.493 73.625 164.66 73.8598 163.947 74.3295C163.243 74.7917 162.697 75.3977 162.311 76.1477C161.932 76.8902 161.743 77.697 161.743 78.5682V80.5568C161.743 81.7235 161.947 82.7159 162.357 83.5341C162.773 84.3523 163.353 84.9773 164.095 85.4091C164.838 85.8333 165.705 86.0455 166.697 86.0455C167.341 86.0455 167.928 85.9545 168.459 85.7727C168.989 85.5833 169.447 85.303 169.834 84.9318C170.22 84.5606 170.516 84.1023 170.72 83.5568L173.936 84.1364C173.678 85.0833 173.216 85.9129 172.55 86.625C171.891 87.3295 171.061 87.8788 170.061 88.2727C169.069 88.6591 167.936 88.8523 166.663 88.8523ZM188.895 88.5L183.758 71.0455H187.27L190.69 83.8636H190.861L194.292 71.0455H197.804L201.213 83.8068H201.383L204.781 71.0455H208.292L203.167 88.5H199.702L196.156 75.8977H195.895L192.349 88.5H188.895ZM210.877 88.5V71.0455H214.275V88.5H210.877ZM212.593 68.3523C212.002 68.3523 211.494 68.1553 211.07 67.7614C210.653 67.3598 210.445 66.8826 210.445 66.3295C210.445 65.7689 210.653 65.2917 211.07 64.8977C211.494 64.4962 212.002 64.2955 212.593 64.2955C213.184 64.2955 213.687 64.4962 214.104 64.8977C214.528 65.2917 214.741 65.7689 214.741 66.3295C214.741 66.8826 214.528 67.3598 214.104 67.7614C213.687 68.1553 213.184 68.3523 212.593 68.3523ZM226.353 71.0455V73.7727H216.819V71.0455H226.353ZM219.376 66.8636H222.774V83.375C222.774 84.0341 222.872 84.5303 223.069 84.8636C223.266 85.1894 223.52 85.4129 223.831 85.5341C224.149 85.6477 224.493 85.7045 224.865 85.7045C225.137 85.7045 225.376 85.6856 225.581 85.6477C225.785 85.6098 225.944 85.5795 226.058 85.5568L226.672 88.3636C226.475 88.4394 226.194 88.5152 225.831 88.5909C225.467 88.6742 225.012 88.7197 224.467 88.7273C223.573 88.7424 222.74 88.5833 221.967 88.25C221.194 87.9167 220.569 87.4015 220.092 86.7045C219.615 86.0076 219.376 85.1326 219.376 84.0795V66.8636ZM233.245 78.1364V88.5H229.847V65.2273H233.199V73.8864H233.415C233.824 72.947 234.449 72.2008 235.29 71.6477C236.131 71.0947 237.229 70.8182 238.586 70.8182C239.782 70.8182 240.828 71.0644 241.722 71.5568C242.623 72.0492 243.32 72.7841 243.813 73.7614C244.313 74.7311 244.563 75.9432 244.563 77.3977V88.5H241.165V77.8068C241.165 76.5265 240.836 75.5341 240.176 74.8295C239.517 74.1174 238.601 73.7614 237.426 73.7614C236.623 73.7614 235.904 73.9318 235.267 74.2727C234.639 74.6136 234.142 75.1136 233.779 75.7727C233.423 76.4242 233.245 77.2121 233.245 78.1364Z" fill="#253B80"/>
<path d="M348.183 62.682H336.852C336.077 62.682 335.417 63.2453 335.296 64.0108L330.714 93.0667C330.622 93.64 331.066 94.1569 331.648 94.1569H337.058C337.833 94.1569 338.492 93.5936 338.613 92.8265L339.849 84.9896C339.969 84.2225 340.63 83.6592 341.403 83.6592H344.991C352.455 83.6592 356.762 80.0473 357.887 72.8898C358.394 69.7583 357.909 67.2979 356.443 65.5748C354.832 63.6827 351.976 62.682 348.183 62.682ZM349.49 73.294C348.871 77.3599 345.764 77.3599 342.76 77.3599H341.051L342.25 69.7666C342.321 69.3077 342.719 68.9697 343.183 68.9697H343.967C346.013 68.9697 347.943 68.9697 348.94 70.1361C349.535 70.832 349.717 71.8658 349.49 73.294Z" fill="#253B80"/>
<path d="M382.054 73.1631H376.627C376.165 73.1631 375.766 73.5011 375.695 73.9601L375.454 75.4777L375.075 74.9277C373.9 73.2228 371.281 72.6528 368.666 72.6528C362.67 72.6528 357.549 77.1942 356.552 83.5647C356.033 86.7426 356.77 89.7812 358.573 91.9003C360.226 93.8487 362.592 94.6606 365.407 94.6606C370.239 94.6606 372.918 91.554 372.918 91.554L372.676 93.0617C372.585 93.6383 373.029 94.1552 373.607 94.1552H378.495C379.272 94.1552 379.928 93.5919 380.051 92.8248L382.983 74.2533C383.076 73.6817 382.634 73.1631 382.054 73.1631ZM374.49 83.7238C373.967 86.8237 371.506 88.9047 368.368 88.9047C366.793 88.9047 365.533 88.3994 364.725 87.4417C363.923 86.4907 363.618 85.1371 363.873 83.6294C364.362 80.5559 366.864 78.407 369.954 78.407C371.495 78.407 372.747 78.919 373.572 79.8849C374.399 80.8608 374.727 82.2227 374.49 83.7238Z" fill="#253B80"/>
<path d="M410.952 73.1631H405.499C404.979 73.1631 404.49 73.4216 404.195 73.854L396.675 84.9316L393.487 74.2865C393.287 73.6204 392.672 73.1631 391.976 73.1631H386.618C385.967 73.1631 385.515 73.7994 385.722 74.4124L391.728 92.0378L386.081 100.009C385.637 100.637 386.085 101.5 386.852 101.5H392.298C392.815 101.5 393.298 101.248 393.592 100.824L411.727 74.646C412.162 74.0197 411.716 73.1631 410.952 73.1631Z" fill="#253B80"/>
<path d="M429.005 62.682H417.673C416.899 62.682 416.239 63.2453 416.118 64.0108L411.536 93.0667C411.444 93.64 411.888 94.1569 412.467 94.1569H418.282C418.822 94.1569 419.285 93.7626 419.369 93.2258L420.67 84.9896C420.789 84.2225 421.45 83.6592 422.224 83.6592H425.809C433.275 83.6592 437.581 80.0473 438.708 72.8898C439.216 69.7583 438.728 67.2979 437.261 65.5748C435.652 63.6827 432.798 62.682 429.005 62.682ZM430.313 73.294C429.695 77.3599 426.588 77.3599 423.582 77.3599H421.874L423.075 69.7666C423.147 69.3077 423.541 68.9697 424.007 68.9697H424.79C426.835 68.9697 428.767 68.9697 429.764 70.1361C430.359 70.832 430.539 71.8658 430.313 73.294Z" fill="#179BD7"/>
<path d="M462.874 73.1631H457.452C456.986 73.1631 456.59 73.5011 456.52 73.9601L456.28 75.4777L455.899 74.9277C454.724 73.2228 452.107 72.6528 449.492 72.6528C443.496 72.6528 438.376 77.1942 437.379 83.5647C436.862 86.7426 437.596 89.7812 439.399 91.9003C441.056 93.8487 443.418 94.6606 446.233 94.6606C451.064 94.6606 453.744 91.554 453.744 91.554L453.502 93.0617C453.411 93.6383 453.855 94.1552 454.436 94.1552H459.322C460.096 94.1552 460.755 93.5919 460.876 92.8248L463.811 74.2533C463.9 73.6817 463.456 73.1631 462.874 73.1631ZM455.311 83.7238C454.791 86.8237 452.327 88.9047 449.189 88.9047C447.617 88.9047 446.354 88.3994 445.546 87.4417C444.744 86.4907 444.442 85.1371 444.694 83.6294C445.186 80.5559 447.685 78.407 450.775 78.407C452.315 78.407 453.568 78.919 454.393 79.8849C455.223 80.8608 455.551 82.2227 455.311 83.7238Z" fill="#179BD7"/>
<path d="M469.271 63.4789L464.62 93.0667C464.529 93.64 464.973 94.1569 465.551 94.1569H470.227C471.004 94.1569 471.664 93.5936 471.783 92.8265L476.369 63.7722C476.46 63.1989 476.016 62.6803 475.438 62.6803H470.202C469.74 62.682 469.342 63.02 469.271 63.4789Z" fill="#179BD7"/>
<path d="M283.657 99.8034L284.524 94.2994L282.594 94.2547H273.377L279.782 53.6406C279.802 53.518 279.867 53.4037 279.961 53.3225C280.056 53.2413 280.176 53.1966 280.302 53.1966H295.844C301.003 53.1966 304.563 54.2702 306.422 56.3893C307.294 57.3834 307.849 58.4223 308.117 59.5655C308.399 60.765 308.404 62.1982 308.129 63.9462L308.109 64.0737V65.1938L308.981 65.6875C309.715 66.0768 310.298 66.5225 310.745 67.0328C311.491 67.8828 311.973 68.9631 312.177 70.2438C312.387 71.561 312.317 73.1283 311.973 74.9028C311.575 76.944 310.932 78.7218 310.064 80.1765C309.266 81.5169 308.248 82.6286 307.04 83.4902C305.887 84.3087 304.517 84.93 302.968 85.3276C301.467 85.7186 299.755 85.9158 297.878 85.9158H296.669C295.804 85.9158 294.964 86.2273 294.304 86.7856C293.643 87.3556 293.206 88.1343 293.072 88.9859L292.981 89.4813L291.45 99.1821L291.38 99.5383C291.362 99.651 291.33 99.7073 291.284 99.7454C291.242 99.7802 291.183 99.8034 291.125 99.8034H283.657Z" fill="#253B80"/>
<path d="M309.806 64.203C309.759 64.4995 309.706 64.8027 309.647 65.1142C307.597 75.6368 300.585 79.2719 291.63 79.2719H287.071C285.975 79.2719 285.053 80.0672 284.882 81.1474L282.547 95.9529L281.886 100.15C281.775 100.859 282.322 101.498 283.038 101.498H291.125C292.082 101.498 292.896 100.802 293.047 99.8581L293.126 99.4472L294.649 89.7845L294.747 89.2543C294.896 88.3066 295.711 87.6107 296.669 87.6107H297.878C305.713 87.6107 311.847 84.4296 313.64 75.2242C314.388 71.3787 314.001 68.1678 312.019 65.9095C311.419 65.2285 310.675 64.6636 309.806 64.203Z" fill="#179BD7"/>
<path d="M307.662 63.348C307.349 63.2569 307.026 63.1741 306.694 63.0995C306.361 63.0266 306.02 62.962 305.669 62.9057C304.439 62.7068 303.092 62.6124 301.649 62.6124H289.468C289.168 62.6124 288.883 62.6803 288.628 62.8029C288.067 63.073 287.649 63.6048 287.548 64.256L284.957 80.6686L284.882 81.1474C285.053 80.0672 285.976 79.2719 287.071 79.2719H291.63C300.586 79.2719 307.597 75.6351 309.647 65.1142C309.708 64.8027 309.759 64.4995 309.806 64.203C309.287 63.9279 308.726 63.6927 308.121 63.4922C307.972 63.4425 307.818 63.3944 307.662 63.348Z" fill="#222D65"/>
<path d="M287.548 64.256C287.649 63.6048 288.066 63.073 288.628 62.8046C288.885 62.682 289.168 62.6141 289.468 62.6141H301.649C303.092 62.6141 304.439 62.7085 305.669 62.9073C306.02 62.9636 306.361 63.0283 306.694 63.1012C307.026 63.1757 307.349 63.2586 307.662 63.3497C307.818 63.3961 307.972 63.4441 308.122 63.4922C308.727 63.6927 309.289 63.9296 309.807 64.203C310.417 60.3144 309.802 57.6667 307.7 55.2693C305.382 52.63 301.198 51.5 295.845 51.5H280.304C279.211 51.5 278.278 52.2953 278.109 53.3772L271.636 94.4087C271.508 95.2206 272.134 95.9529 272.953 95.9529H282.547L284.957 80.6686L287.548 64.256Z" fill="#253B80"/>
</svg>
